#!OML:ASF E:\VariousWalksJay\Project 1\Capture day 1\Session 1\Actor2.ASF
:FULLY-SPECIFIED
:DEGREES
1232
root -2.78241 17.5104 -22.3453 363.392 -31.5041 -366.29
lowerback -1.1735 0.463379 7.20294
upperback 5.1399 0.282174 -0.10557
thorax 6.08213 0.48265 -4.13119
lowerneck -2.65063 -4.65475 -5.78819
upperneck -5.68265 -5.89827 7.50229
head -0.920396 -2.94336 3.41324
rclavicle 5.8393e-014 -5.96354e-015
rhumerus -32.4098 2.16945 -85.2583
rradius 33.876
rwrist -0.838273
rhand -7.43818 -7.73159
rfingers 7.12502
rthumb 18.4494 -36.8767
lclavicle 5.8393e-014 -5.96354e-015
lhumerus -26.8325 9.07539 79.0246
lradius 17.3239
lwrist 0.0764933
lhand -8.20052 -11.5242
lfingers 7.12502
lthumb 17.7159 17.6887
rfemur -13.4647 -0.540299 23.8313
rtibia 36.9407
rfoot -25.5545 -5.83292
rtoes -13.2037
lfemur -8.73889 2.34216 -12.7765
ltibia 32.9651
lfoot -23.6753 5.3418
ltoes -8.30819
1233
root -2.79765 17.5149 -22.3521 363.435 -31.2046 -366.325
lowerback -1.35577 0.44129 7.18702
upperback 5.0504 0.239494 -0.0342183
thorax 6.08486 0.456965 -4.04972
lowerneck -2.48127 -4.6608 -5.87094
upperneck -5.55024 -5.91646 7.51111
head -0.903447 -2.95245 3.43381
rclavicle -2.56929e-014 -3.57812e-015
rhumerus -32.3019 1.73562 -85.1786
rradius 33.0163
rwrist -0.312588
rhand -7.07297 -7.58757
rfingers 7.12502
rthumb 18.8006 -36.699
lclavicle -2.56929e-014 -3.57812e-015
lhumerus -26.9351 8.9185 79.3037
lradius 17.8314
lwrist 0.713038
lhand -8.01427 -11.5816
lfingers 7.12502
lthumb 17.8951 17.6151
rfemur -13.3406 -0.570884 23.9618
rtibia 36.7228
rfoot -25.6513 -6.054
rtoes -12.975
lfemur -8.80662 2.13852 -12.6689
ltibia 32.9202
lfoot -23.6448 5.3184
ltoes -8.45948
1234
root -2.81287 17.5187 -22.3586 363.465 -30.9002 -366.361
lowerback -1.51989 0.413007 7.18022
upperback 4.96761 0.189762 0.0265613
thorax 6.08391 0.428575 -3.98519
lowerneck -2.33991 -4.66738 -5.95495
upperneck -5.41592 -5.93379 7.54717
head -0.880134 -2.96111 3.46312
rclavicle -1.47598e-014 1.70955e-014
rhumerus -32.1907 1.24328 -85.0878
rradius 32.1988
rwrist 0.192571
rhand -6.77722 -7.44864
rfingers 7.12502
rthumb 19.0851 -36.5323
lclavicle -1.47598e-014 1.70955e-014
lhumerus -27.0296 8.70309 79.5807
lradius 18.3424
lwrist 1.3135
lhand -7.83284 -11.6652
lfingers 7.12502
lthumb 18.0697 17.5155
rfemur -13.2125 -0.59153 24.0935
rtibia 36.5205
rfoot -25.7448 -6.26742
rtoes -12.6884
lfemur -8.8673 1.93817 -12.5588
ltibia 32.8852
lfoot -23.6165 5.284
ltoes -8.60202
1235
root -2.82768 17.5218 -22.3649 363.485 -30.5926 -366.399
lowerback -1.66598 0.38224 7.18985
upperback 4.89139 0.137742 0.0737248
thorax 6.0799 0.400285 -3.94456
lowerneck -2.21602 -4.68089 -6.02525
upperneck -5.28983 -5.95941 7.59917
head -0.855672 -2.97427 3.49488
rclavicle 4.65653e-014 -1.55052e-014
rhumerus -32.0812 0.696158 -84.9937
rradius 31.429
rwrist 0.665857
rhand -6.57337 -7.32026
rfingers 7.12502
rthumb 19.2811 -36.3844
lclavicle 4.65653e-014 -1.55052e-014
lhumerus -27.1096 8.43532 79.8487
lradius 18.8439
lwrist 1.8529
lhand -7.65962 -11.7864
lfingers 7.12502
lthumb 18.2363 17.3787
rfemur -13.084 -0.618383 24.2234
rtibia 36.3344
rfoot -25.8251 -6.4594
rtoes -12.3603
lfemur -8.92366 1.74418 -12.4464
ltibia 32.8623
lfoot -23.5869 5.23567
ltoes -8.73596
1236
root -2.84164 17.5243 -22.371 363.496 -30.2828 -366.449
lowerback -1.78586 0.344544 7.22425
upperback 4.81654 0.077596 0.114321
thorax 6.06181 0.368856 -3.92547
lowerneck -2.08971 -4.69672 -6.09628
upperneck -5.18241 -5.98735 7.67082
head -0.836794 -2.98906 3.5341
rclavicle -6.49529e-014 1.07344e-014
rhumerus -31.9871 0.132345 -84.9
rradius 30.7117
rwrist 1.08595
rhand -6.48118 -7.22222
rfingers 7.12502
rthumb 19.3697 -36.2775
lclavicle -6.49529e-014 1.07344e-014
lhumerus -27.1827 8.13498 80.1066
lradius 19.3227
lwrist 2.3226
lhand -7.50502 -11.9521
lfingers 7.12502
lthumb 18.3851 17.1991
rfemur -12.9538 -0.665044 24.3576
rtibia 36.1629
rfoot -25.8872 -6.61603
rtoes -11.9838
lfemur -8.97491 1.55492 -12.324
ltibia 32.8527
lfoot -23.5545 5.17188
ltoes -8.85525
1237
root -2.85456 17.5263 -22.3768 363.499 -29.9742 -366.502
lowerback -1.88602 0.302183 7.28092
upperback 4.74663 0.0118813 0.14573
thorax 6.03741 0.335838 -3.92905
lowerneck -1.96681 -4.71773 -6.16459
upperneck -5.0945 -6.0213 7.75792
head -0.822683 -3.00725 3.57847
rclavicle -8.82107e-014 1.90833e-014
rhumerus -31.9022 -0.436343 -84.8123
rradius 30.0491
rwrist 1.45018
rhand -6.49261 -7.1405
rfingers 7.12502
rthumb 19.3588 -36.1969
lclavicle -8.82107e-014 1.90833e-014
lhumerus -27.2286 7.81876 80.349
lradius 19.7684
lwrist 2.72075
lhand -7.3568 -12.1291
lfingers 7.12502
lthumb 18.5276 17.0086
rfemur -12.8255 -0.744451 24.4873
rtibia 36.0054
rfoot -25.9264 -6.7304
rtoes -11.5844
lfemur -9.02292 1.3728 -12.1992
ltibia 32.8554
lfoot -23.5185 5.09287
ltoes -8.95745
1238
root -2.86641 17.5278 -22.3823 363.496 -29.67 -366.562
lowerback -1.96621 0.257542 7.35903
upperback 4.67999 -0.0561398 0.169399
thorax 6.00501 0.302631 -3.95301
lowerneck -1.84844 -4.74507 -6.22619
upperneck -5.02353 -6.06298 7.85502
head -0.812461 -3.02964 3.62526
rclavicle 5.63555e-014 -3.57812e-015
rhumerus -31.8308 -1.00017 -84.7323
rradius 29.4383
rwrist 1.75335
rhand -6.6119 -7.07921
rfingers 7.12502
rthumb 19.244 -36.1471
lclavicle 5.63555e-014 -3.57812e-015
lhumerus -27.2451 7.49978 80.5726
lradius 20.1789
lwrist 3.04349
lhand -7.20501 -12.2907
lfingers 7.12502
lthumb 18.6736 16.833
rfemur -12.7007 -0.863654 24.6139
rtibia 35.8608
rfoot -25.9409 -6.79988
rtoes -11.1723
lfemur -9.06842 1.2065 -12.0692
ltibia 32.8682
lfoot -23.4763 4.99106
ltoes -9.04545
1239
root -2.87731 17.529 -22.3876 363.488 -29.3735 -366.624
lowerback -2.02937 0.210611 7.44887
upperback 4.61432 -0.126291 0.189044
thorax 5.96361 0.26864 -3.98796
lowerneck -1.73192 -4.77768 -6.28801
upperneck -4.96955 -6.11095 7.96272
head -0.806477 -3.05545 3.67609
rclavicle 2.15681e-014 -2.10712e-014
rhumerus -31.7778 -1.53778 -84.659
rradius 28.8813
rwrist 1.99244
rhand -6.82797 -7.03684
rfingers 7.12502
rthumb 19.0363 -36.1253
lclavicle 2.15681e-014 -2.10712e-014
lhumerus -27.2331 7.1928 80.7794
lradius 20.5458
lwrist 3.29449
lhand -7.04545 -12.4236
lfingers 7.12502
lthumb 18.8271 16.6853
rfemur -12.581 -1.02247 24.7339
rtibia 35.729
rfoot -25.9326 -6.83142
rtoes -10.7627
lfemur -9.11159 1.05888 -11.9379
ltibia 32.8871
lfoot -23.4276 4.86467
ltoes -9.1152
1240
root -2.88738 17.53 -22.3925 363.475 -29.0872 -366.683
lowerback -2.08304 0.163575 7.54424
upperback 4.55306 -0.196081 0.20372
thorax 5.92144 0.235204 -4.0312
lowerneck -1.62583 -4.81494 -6.35443
upperneck -4.92257 -6.16439 8.07976
head -0.799935 -3.08396 3.73091
rclavicle 6.93758e-014 -1.15295e-014
rhumerus -31.7398 -2.03816 -84.5965
rradius 28.3809
rwrist 2.16881
rhand -7.11413 -7.00179
rfingers 7.12502
rthumb 18.761 -36.1171
lclavicle 6.93758e-014 -1.15295e-014
lhumerus -27.1833 6.90467 80.9687
lradius 20.8633
lwrist 3.48592
lhand -6.8847 -12.5292
lfingers 7.12502
lthumb 18.9817 16.5646
rfemur -12.466 -1.21369 24.8433
rtibia 35.6094
rfoot -25.9061 -6.83225
rtoes -10.3524
lfemur -9.15047 0.928873 -11.811
ltibia 32.9084
lfoot -23.3732 4.71984
ltoes -9.17701
1241
root -2.89688 17.5309 -22.3972 363.457 -28.8174 -366.739
lowerback -2.12899 0.121011 7.64186
upperback 4.49661 -0.259382 0.21357
thorax 5.88062 0.205285 -4.08029
lowerneck -1.53657 -4.85929 -6.41772
upperneck -4.87726 -6.22659 8.2011
head -0.790096 -3.11674 3.78607
rclavicle -3.47873e-016 1.39149e-014
rhumerus -31.716 -2.50753 -84.5435
rradius 27.9364
rwrist 2.29753
rhand -7.45356 -6.9964
rfingers 7.12502
rthumb 18.4346 -36.1429
lclavicle -3.47873e-016 1.39149e-014
lhumerus -27.0941 6.63753 81.14
lradius 21.1255
lwrist 3.62098
lhand -6.73823 -12.6194
lfingers 7.12502
lthumb 19.1226 16.4606
rfemur -12.3563 -1.42034 24.9453
rtibia 35.5019
rfoot -25.8672 -6.81707
rtoes -9.94765
lfemur -9.18311 0.815908 -11.6879
ltibia 32.9285
lfoot -23.3135 4.56376
ltoes -9.22901
1242
root -2.90603 17.5317 -22.4014 363.433 -28.5693 -366.791
lowerback -2.16934 0.0826769 7.7358
upperback 4.44665 -0.316624 0.221121
thorax 5.84409 0.17849 -4.12927
lowerneck -1.46474 -4.90864 -6.47968
upperneck -4.83343 -6.29482 8.32319
head -0.777038 -3.15233 3.84071
rclavicle 3.77691e-015 1.51076e-014
rhumerus -31.7064 -2.92397 -84.5039
rradius 27.5505
rwrist 2.36498
rhand -7.8255 -7.00835
rfingers 7.12502
rthumb 18.0767 -36.1883
lclavicle 3.77691e-015 1.51076e-014
lhumerus -26.9681 6.40236 81.2951
lradius 21.3404
lwrist 3.69627
lhand -6.5981 -12.6666
lfingers 7.12502
lthumb 19.2573 16.4
rfemur -12.2487 -1.63387 25.0397
rtibia 35.4057
rfoot -25.8201 -6.79788
rtoes -9.57986
lfemur -9.20407 0.720397 -11.5705
ltibia 32.9445
lfoot -23.2506 4.40301
ltoes -9.27675
1243
root -2.91504 17.5324 -22.4054 363.401 -28.3445 -366.837
lowerback -2.20808 0.0470798 7.81752
upperback 4.40305 -0.3699 0.229923
thorax 5.81367 0.15339 -4.16981
lowerneck -1.39367 -4.95874 -6.55619
upperneck -4.79637 -6.36371 8.45195
head -0.765116 -3.18814 3.9007
rclavicle -4.42793e-014 1.86858e-014
rhumerus -31.7104 -3.27571 -84.4748
rradius 27.222
rwrist 2.37642
rhand -8.20813 -7.0166
rfingers 7.12502
rthumb 17.7086 -36.2302
lclavicle -4.42793e-014 1.86858e-014
lhumerus -26.8112 6.20765 81.4383
lradius 21.5013
lwrist 3.7141
lhand -6.49929 -12.6943
lfingers 7.12502
lthumb 19.3523 16.3627
rfemur -12.1416 -1.84488 25.1249
rtibia 35.3201
rfoot -25.7695 -6.77938
rtoes -9.24343
lfemur -9.2106 0.641252 -11.4617
ltibia 32.955
lfoot -23.1854 4.24467
ltoes -9.32673
1244
root -2.92399 17.5331 -22.4088 363.362 -28.1444 -366.879
lowerback -2.24205 0.0145395 7.88771
upperback 4.36424 -0.418529 0.24172
thorax 5.78602 0.130158 -4.20037
lowerneck -1.32792 -5.0083 -6.64558
upperneck -4.75861 -6.4317 8.58533
head -0.751341 -3.22329 3.96475
rclavicle 3.88624e-014 -5.1684e-015
rhumerus -31.7311 -3.55795 -84.4566
rradius 26.952
rwrist 2.33352
rhand -8.57833 -7.03467
rfingers 7.12502
rthumb 17.3523 -36.2801
lclavicle 3.88624e-014 -5.1684e-015
lhumerus -26.6304 6.04911 81.5732
lradius 21.6086
lwrist 3.67952
lhand -6.45328 -12.7084
lfingers 7.12502
lthumb 19.3966 16.3441
rfemur -12.0327 -2.04492 25.2047
rtibia 35.2434
rfoot -25.7187 -6.76818
rtoes -8.94374
lfemur -9.20038 0.571577 -11.3599
ltibia 32.9599
lfoot -23.1226 4.0977
ltoes -9.37383
1245
root -2.93294 17.5337 -22.4119 363.316 -27.9656 -366.914
lowerback -2.27866 -0.0104815 7.94962
upperback 4.33492 -0.457269 0.249453
thorax 5.77115 0.112269 -4.2299
lowerneck -1.28 -5.06368 -6.72785
upperneck -4.71765 -6.50708 8.71551
head -0.732885 -3.26189 4.02559
rclavicle 2.93207e-015 2.0276e-014
rhumerus -31.7565 -3.79956 -84.4505
rradius 26.7349
rwrist 2.25824
rhand -8.92002 -7.06111
rfingers 7.12502
rthumb 17.0234 -36.3352
lclavicle 2.93207e-015 2.0276e-014
lhumerus -26.4153 5.90414 81.7001
lradius 21.6642
lwrist 3.59778
lhand -6.4652 -12.7177
lfingers 7.12502
lthumb 19.3851 16.3361
rfemur -11.924 -2.22916 25.2772
rtibia 35.1748
rfoot -25.6696 -6.76992
rtoes -8.67611
lfemur -9.1766 0.506812 -11.2684
ltibia 32.9595
lfoot -23.0625 3.96689
ltoes -9.4229
